<svg xmlns="http://www.w3.org/2000/svg" viewBox="0 0 1200 800" role="img" aria-label="Wedding package preview">
  <defs>
    <linearGradient id="bg" x1="0" x2="1" y1="0" y2="1">
      <stop offset="0%" stop-color="#1f2937"/>
      <stop offset="100%" stop-color="#111827"/>
    </linearGradient>
    <linearGradient id="gold" x1="0" x2="1" y1="0" y2="0">
      <stop offset="0%" stop-color="#ffe082"/>
      <stop offset="100%" stop-color="#ffd54f"/>
    </linearGradient>
  </defs>
  <rect width="1200" height="800" fill="url(#bg)" rx="32"/>
  <circle cx="950" cy="170" r="120" fill="#f59e0b" opacity="0.18"/>
  <circle cx="260" cy="650" r="160" fill="#a78bfa" opacity="0.12"/>
  <rect x="120" y="150" width="960" height="500" rx="28" fill="#0f172a" stroke="#fbbf24" stroke-width="4" opacity="0.92"/>
  <rect x="180" y="240" width="300" height="180" rx="24" fill="#111827" stroke="#fbbf24" stroke-width="3"/>
  <rect x="520" y="210" width="500" height="230" rx="28" fill="url(#gold)" opacity="0.12"/>
  <path d="M620 400 C700 290, 880 270, 960 400" fill="none" stroke="#ffe082" stroke-width="8" stroke-linecap="round"/>
  <circle cx="730" cy="340" r="62" fill="#f8fafc" opacity="0.95"/>
  <path d="M700 330 C740 260, 810 260, 850 330" fill="none" stroke="#f59e0b" stroke-width="8" stroke-linecap="round"/>
  <rect x="220" y="460" width="780" height="90" rx="18" fill="#111827" stroke="#fbbf24" stroke-width="3"/>
  <text x="260" y="520" font-family="Arial, Helvetica, sans-serif" font-size="44" font-weight="700" fill="#fff">Wedding Packages</text>
  <text x="260" y="575" font-family="Arial, Helvetica, sans-serif" font-size="24" fill="#fbbf24">Elegant photography • cinematic video • timeless memories</text>
</svg>